<?xml version="1.0" encoding="utf-8"?>
<!-- Generator: Adobe Illustrator 26.0.1, SVG Export Plug-In . SVG Version: 6.00 Build 0)  -->
<svg version="1.1" id="Capa_1" xmlns="http://www.w3.org/2000/svg" xmlns:xlink="http://www.w3.org/1999/xlink" x="0px" y="0px"
	 viewBox="0 0 295 154.4" style="enable-background:new 0 0 295 154.4;" xml:space="preserve">
<style type="text/css">
	.st0{fill:#FFFFFF;}
</style>
<g>
	<path class="st0" d="M213.9,46.4c-1.2,0-2.1,0.5-2.7,1.6c-0.2,0.4-0.9,0.7-1.4,0.7c-2.2,0-4.4-0.2-6.6-0.3
		c-6.2-0.3-12.5-0.7-18.7-1c-0.8,0-1.2-0.4-1.5-1.1c-1.3-2.9-2.7-5.9-4-8.8c-0.4-0.9-0.8-1-1.7-0.8c-10.1,1.8-20.2,3.6-30.4,5.4
		c-9.1,1.6-47.7,8.7-66.8,12.2c-0.8,0.1-0.6,1.3,0.2,1.2c18-1.3,54.1-4,75.5-5.7c0.4,0,0.7,0.3,0.6,0.8c-1.2,4.6-1,8.8,1.7,12.9
		c0.2,0.4,0,0.9-0.4,0.9c-5.3,0.5-10.5,1-15.7,1.6c0.7,0.2,1.5,0.2,2.2,0.2c7.3,0,14.6,0,21.9,0c2.4,0,4.1-1,5.4-2.8
		c3.1-4.2,3.1-11.9-0.1-16.1c-1.1-1.5-2.4-2.6-4.4-2.6c-2.3,0-4.5,0.1-6.7,0.2c0.6-0.3,1.4-0.8,2.3-1c1.4-0.2,2.8-0.1,4.3-0.2
		c2.1-0.1,3.9,0.7,5,2.4c0.9,1.4,1.8,2.7,3.7,2.3c0.4-0.1,0.7,0.2,0.7,0.6c0,0.4,0,0.7,0,1.1c0.1,3.4,0.1,6.7,0.3,10.1
		c0.2,3.3,1.5,4.6,4.9,4.6c5.2,0,10.4-0.1,15.5-0.3c0.9,0,1.4,0.2,1.8,0.8c0.2,0.4,0,0.9-0.5,0.9l-0.1,0c-0.8,0.1-0.7,1.2,0.1,1.2
		c2,0,4,0,6,0.1c2.2,0,3.8-0.8,4.9-2.7c0.2-0.4,0.9-0.7,1.4-0.8c1.1-0.1,2.2-0.2,3.3-0.2c0.3,0,0.6-0.3,0.6-0.6V47
		C214.5,46.7,214.2,46.4,213.9,46.4z M164.7,48.8c2.1,0.3,3.1,1.8,3.7,3.6c0.7,2.2,0.7,4.4-0.1,6.5c-0.7,1.9-1.7,2.8-3.4,3.1
		c-0.6,0.1-0.9-0.6-0.5-1c1.4-1.5,1.9-3.4,1.9-5.5c0-2.1-0.5-4.1-2-5.6C163.8,49.4,164.1,48.7,164.7,48.8z M189.6,60.8
		c0,0.3-0.3,0.6-0.6,0.6c-2.7-0.2-5.4,0.6-8.1-0.9c-0.9-0.5-1.5-1-1.5-1.9c0-0.5,0.5-0.8,0.9-0.6c2.7,1.4,5.8,0.7,8.8,0.9
		c0.3,0,0.6,0.3,0.6,0.6V60.8z M189.6,55.1c0,0.3-0.3,0.6-0.6,0.6c-2.7-0.2-5.5,0.7-8.1-0.8c-0.9-0.5-1.5-1-1.5-1.9
		c0-0.5,0.5-0.8,0.9-0.6c2.7,1.4,5.7,0.8,8.8,1c0.3,0,0.6,0.3,0.6,0.6V55.1z M211.5,59.8c0,0.3-0.3,0.6-0.6,0.6h-4.7
		c-0.3,0-0.6-0.3-0.6-0.6v-1.1c0-0.3,0.3-0.6,0.6-0.6h4.7c0.3,0,0.6,0.3,0.6,0.6V59.8z M211.5,54.7c0,0.3-0.3,0.6-0.6,0.6h-4.8
		c-0.3,0-0.6-0.3-0.6-0.6v-1.1c0-0.3,0.3-0.6,0.6-0.6h4.8c0.3,0,0.6,0.3,0.6,0.6V54.7z M214.2,35.7c-0.2-0.2-0.2-0.6-0.3-0.9
		c-1.2-5.8-2.5-11.6-3.7-17.4c-0.1-0.7,0.5-1.5,0.4-2.2c-0.2-3.5-1.9-5.3-5.3-5.9c-6.6-1.1-13.2-2.2-19.8-3.3c-3-0.5-6.1-1-9.1-1.6
		c-1.7-0.3-3.2,0.2-4.5,1.2c-2.5,1.9-5.2,2.8-8.3,3c-1.8,0.1-3.6,0.5-5.5,0.8c0.5,9.1,0.9,18.2,1.4,27.4c6.2-1,12.3-1.9,18.3-3
		c1-0.2,1.5,0.1,1.9,1c1.6,3.2,3.3,6.3,4.9,9.5c0.4,0.8,0.9,1.2,1.9,1.3c7.8,0.4,15.6,0.8,23.4,1.2c0.3,0,0.9-0.2,1-0.4
		c0.6-1.6,2-2,3.5-2.4c0.4-0.1,1.1-0.5,1-0.7C214.9,40.7,216.3,37.9,214.2,35.7z M173.9,26.5c-0.3,0-0.7-0.3-1-0.5
		c-0.2-0.2-0.3-0.5-0.4-0.7c-1.7-2.9-1.7-2.9-5.1-2.3c-1.3,0.2-2.6,0.4-4.1,0.7c0.1-2.5,0.2-4.9,0.4-7.2c0-0.3,0.6-0.7,0.9-0.7
		c3.9-0.7,7.9-1.3,11.9-1.9c0.3,0,0.9,0.3,1,0.5c0.8,3.8,1.5,7.6,2.3,11.5C177.7,26.1,175.8,26.3,173.9,26.5z M207.9,41
		c-6.7-0.5-13.4-1-20.2-1.6c-0.6-0.1-1.2-0.8-1.8-1.2c0.1-0.2,0.2-0.3,0.2-0.5c7.6,0.7,15.2,1.4,22.8,2
		C209.1,40.7,208.9,41.1,207.9,41z M208,38.3c-6.7-0.5-13.4-1-20-1.6c-0.7-0.1-1.2-0.7-1.9-1.1c0.1-0.2,0.2-0.3,0.3-0.5
		c7.5,0.7,15.1,1.3,22.7,2C209.1,38,209,38.4,208,38.3z M208,35.6c-6.7-0.6-13.4-1-20.2-1.6c-0.6-0.1-1.2-0.8-1.7-1.2
		c0.1-0.1,0.2-0.3,0.3-0.4c7.5,0.7,15.1,1.4,22.6,2C209.2,35.3,209,35.7,208,35.6z M208.4,29.6c-4.3-0.5-8.3-1-12.2-1.5
		c-3.5-0.4-7-0.9-10.6-1.3c-1.3-0.1-2-0.7-2.2-2c-0.5-3.5-1.1-7.1-1.7-10.6c-0.2-1.1,0.6-1.1,1.3-1c3,0.5,6.1,1,9.1,1.5
		c4,0.6,8,1.3,12,1.8c2.1,0.3,2.3,0.4,2.9,2.5c0.8,3,1.6,6.1,2.3,9.1C209.6,29.2,209.3,29.8,208.4,29.6z M90.5,43.4
		c19.4-2.1,45.9-5,63.2-6.9c0.6-0.1,1.1-0.6,1.1-1.2l0-7.9c0-0.8-0.7-1.4-1.5-1.2c-21.2,4.8-42.2,9.6-63.2,14.4
		C88.3,40.9,88.7,43.6,90.5,43.4z M99.5,30.5c14.1-2.2,28.5-4.6,33.9-5.4c6.9-1.1,13.8-2.2,20.7-3.4c0.4-0.1,1-0.6,1-0.9
		c-0.1-2.4-0.2-4.8-0.3-7.3c-0.1-1.1-1.1-1.9-2.2-1.6L98.7,26.7C96.3,27.3,97,30.9,99.5,30.5z"/>
	<g>
		<g>
			<path class="st0" d="M169.9,132.3h1.5v14.6h-1.5V132.3z"/>
			<path class="st0" d="M183.9,147.1c-0.8,0-1.5-0.1-2.1-0.4c-0.7-0.3-1.2-0.7-1.7-1.2c-0.5-0.5-0.9-1.1-1.1-1.7
				c-0.3-0.6-0.4-1.3-0.4-2.1v0c0-0.7,0.1-1.4,0.4-2.1s0.6-1.2,1.1-1.7c0.5-0.5,1.1-0.9,1.7-1.2c0.7-0.3,1.4-0.4,2.2-0.4
				c0.8,0,1.5,0.1,2.2,0.4c0.7,0.3,1.2,0.7,1.7,1.2c0.5,0.5,0.9,1.1,1.1,1.7c0.3,0.6,0.4,1.3,0.4,2.1v0c0,0.7-0.1,1.4-0.4,2.1
				c-0.3,0.7-0.7,1.2-1.1,1.7c-0.5,0.5-1.1,0.9-1.7,1.2C185.4,147,184.7,147.1,183.9,147.1z M183.9,145.7c0.6,0,1.1-0.1,1.5-0.3
				c0.5-0.2,0.9-0.5,1.2-0.9c0.3-0.4,0.6-0.8,0.8-1.3c0.2-0.5,0.3-1,0.3-1.5v0c0-0.6-0.1-1.1-0.3-1.6c-0.2-0.5-0.5-0.9-0.8-1.3
				c-0.3-0.4-0.8-0.7-1.2-0.9c-0.5-0.2-1-0.3-1.5-0.3c-0.6,0-1.1,0.1-1.5,0.3c-0.5,0.2-0.9,0.5-1.2,0.9c-0.3,0.4-0.6,0.8-0.8,1.3
				c-0.2,0.5-0.3,1-0.3,1.6v0c0,0.6,0.1,1.1,0.3,1.6c0.2,0.5,0.5,0.9,0.8,1.3c0.3,0.4,0.7,0.6,1.2,0.9
				C182.9,145.6,183.4,145.7,183.9,145.7z"/>
			<path class="st0" d="M200.8,150.1c-0.9,0-1.7-0.1-2.5-0.4c-0.8-0.2-1.5-0.6-2.2-1.1l0.7-1.2c0.6,0.4,1.2,0.8,1.9,1
				c0.7,0.2,1.4,0.3,2.1,0.3c1.1,0,2.1-0.3,2.7-0.9c0.7-0.6,1-1.5,1-2.8v-1.2c-0.5,0.6-1,1.1-1.7,1.5c-0.7,0.4-1.5,0.6-2.4,0.6
				c-0.6,0-1.2-0.1-1.8-0.3c-0.6-0.2-1.1-0.6-1.6-1c-0.5-0.4-0.8-0.9-1.1-1.5c-0.3-0.6-0.4-1.3-0.4-2v0c0-0.8,0.1-1.4,0.4-2
				c0.3-0.6,0.6-1.1,1.1-1.5c0.5-0.4,1-0.7,1.6-1c0.6-0.2,1.2-0.3,1.8-0.3c0.5,0,0.9,0.1,1.3,0.2c0.4,0.1,0.8,0.3,1.1,0.5
				c0.3,0.2,0.6,0.4,0.9,0.7c0.3,0.3,0.5,0.5,0.7,0.8v-1.9h1.5v8.5c0,0.8-0.1,1.5-0.3,2.1c-0.2,0.6-0.6,1.1-1,1.6
				c-0.5,0.5-1,0.8-1.7,1C202.4,150,201.6,150.1,200.8,150.1z M200.8,144.7c0.5,0,1-0.1,1.4-0.3c0.5-0.2,0.9-0.4,1.2-0.7
				c0.4-0.3,0.6-0.7,0.9-1.1c0.2-0.4,0.3-0.9,0.3-1.4v0c0-0.5-0.1-1-0.3-1.4c-0.2-0.4-0.5-0.8-0.9-1.1c-0.4-0.3-0.8-0.5-1.2-0.7
				c-0.5-0.2-0.9-0.3-1.4-0.3c-0.5,0-1,0.1-1.4,0.3c-0.4,0.2-0.8,0.4-1.1,0.7c-0.3,0.3-0.6,0.7-0.8,1.1c-0.2,0.4-0.3,0.9-0.3,1.4v0
				c0,0.5,0.1,1,0.3,1.4c0.2,0.4,0.5,0.8,0.8,1.1c0.3,0.3,0.7,0.5,1.1,0.7C199.8,144.6,200.3,144.7,200.8,144.7z"/>
			<path class="st0" d="M213.6,132.6h1.8v1.7h-1.8V132.6z M213.7,136.5h1.5v10.3h-1.5V136.5z"/>
			<path class="st0" d="M226.4,147.1c-0.7,0-1.5-0.1-2.3-0.4c-0.8-0.3-1.4-0.6-2-1.1l0.8-1.1c0.6,0.4,1.1,0.8,1.8,1
				c0.6,0.2,1.2,0.3,1.8,0.3c0.6,0,1.1-0.1,1.5-0.4c0.4-0.3,0.6-0.7,0.6-1.2v0c0-0.3-0.1-0.5-0.2-0.7c-0.1-0.2-0.3-0.3-0.6-0.5
				c-0.2-0.1-0.5-0.3-0.8-0.4c-0.3-0.1-0.6-0.2-1-0.3c-0.4-0.1-0.8-0.3-1.2-0.4c-0.4-0.1-0.8-0.3-1.1-0.5c-0.3-0.2-0.6-0.5-0.8-0.8
				c-0.2-0.3-0.3-0.7-0.3-1.2v0c0-0.4,0.1-0.8,0.3-1.2c0.2-0.4,0.4-0.7,0.7-0.9c0.3-0.3,0.7-0.5,1.1-0.6c0.4-0.1,0.9-0.2,1.4-0.2
				c0.6,0,1.3,0.1,1.9,0.3c0.7,0.2,1.2,0.5,1.8,0.8l-0.7,1.2c-0.5-0.3-1-0.5-1.5-0.7c-0.5-0.2-1-0.3-1.6-0.3c-0.6,0-1.1,0.1-1.5,0.4
				c-0.4,0.3-0.5,0.6-0.5,1.1v0c0,0.2,0.1,0.4,0.2,0.6c0.1,0.2,0.3,0.3,0.6,0.5c0.2,0.1,0.5,0.3,0.9,0.4c0.3,0.1,0.7,0.2,1,0.3
				c0.4,0.1,0.8,0.3,1.2,0.4c0.4,0.1,0.8,0.3,1.1,0.6c0.3,0.2,0.6,0.5,0.8,0.8c0.2,0.3,0.3,0.7,0.3,1.2v0c0,0.5-0.1,0.9-0.3,1.3
				s-0.5,0.7-0.8,1c-0.3,0.3-0.7,0.5-1.2,0.6C227.4,147,226.9,147.1,226.4,147.1z"/>
			<path class="st0" d="M240.5,147c-0.4,0-0.8-0.1-1.2-0.2c-0.4-0.1-0.7-0.3-0.9-0.5c-0.3-0.2-0.5-0.5-0.6-0.9
				c-0.1-0.4-0.2-0.8-0.2-1.3v-6.2h-1.4v-1.4h1.4v-3.1h1.5v3.1h3.3v1.4h-3.3v6c0,0.6,0.2,1.1,0.5,1.3c0.3,0.3,0.7,0.4,1.3,0.4
				c0.3,0,0.5,0,0.8-0.1s0.5-0.1,0.8-0.3v1.3c-0.3,0.1-0.5,0.3-0.9,0.3C241.2,147,240.9,147,240.5,147z"/>
			<path class="st0" d="M249.3,132.6h1.8v1.7h-1.8V132.6z M249.4,136.5h1.5v10.3h-1.5V136.5z"/>
			<path class="st0" d="M263.3,147.1c-0.8,0-1.5-0.1-2.1-0.4c-0.6-0.3-1.2-0.7-1.7-1.2c-0.5-0.5-0.8-1.1-1.1-1.7
				c-0.3-0.7-0.4-1.3-0.4-2.1v0c0-0.7,0.1-1.4,0.4-2.1s0.6-1.2,1.1-1.7c0.5-0.5,1-0.9,1.7-1.2c0.6-0.3,1.4-0.4,2.1-0.4
				c0.5,0,0.9,0,1.3,0.1s0.8,0.2,1.1,0.4c0.3,0.2,0.6,0.4,0.9,0.6c0.3,0.2,0.5,0.5,0.8,0.7l-1,1.1c-0.4-0.4-0.9-0.8-1.4-1.1
				c-0.5-0.3-1.1-0.5-1.8-0.5c-0.5,0-1,0.1-1.5,0.3c-0.5,0.2-0.8,0.5-1.2,0.9c-0.3,0.4-0.6,0.8-0.8,1.3c-0.2,0.5-0.3,1-0.3,1.6v0
				c0,0.6,0.1,1.1,0.3,1.6c0.2,0.5,0.5,0.9,0.8,1.3c0.3,0.4,0.7,0.7,1.2,0.9c0.5,0.2,1,0.3,1.5,0.3c0.7,0,1.3-0.1,1.8-0.4
				c0.5-0.3,1-0.7,1.4-1.1l1,0.9c-0.5,0.6-1.1,1.1-1.8,1.4C265,146.9,264.2,147.1,263.3,147.1z"/>
			<path class="st0" d="M277.5,147.1c-0.7,0-1.5-0.1-2.3-0.4c-0.8-0.3-1.4-0.6-2-1.1l0.8-1.1c0.6,0.4,1.1,0.8,1.8,1
				c0.6,0.2,1.2,0.3,1.8,0.3c0.6,0,1.1-0.1,1.5-0.4s0.6-0.7,0.6-1.2v0c0-0.3-0.1-0.5-0.2-0.7c-0.1-0.2-0.3-0.3-0.6-0.5
				c-0.2-0.1-0.5-0.3-0.8-0.4c-0.3-0.1-0.6-0.2-1-0.3c-0.4-0.1-0.8-0.3-1.2-0.4c-0.4-0.1-0.8-0.3-1.1-0.5c-0.3-0.2-0.6-0.5-0.8-0.8
				c-0.2-0.3-0.3-0.7-0.3-1.2v0c0-0.4,0.1-0.8,0.3-1.2c0.2-0.4,0.4-0.7,0.7-0.9s0.7-0.5,1.1-0.6c0.4-0.1,0.9-0.2,1.4-0.2
				c0.6,0,1.3,0.1,1.9,0.3c0.7,0.2,1.2,0.5,1.8,0.8l-0.7,1.2c-0.5-0.3-1-0.5-1.5-0.7c-0.5-0.2-1-0.3-1.6-0.3c-0.6,0-1.1,0.1-1.5,0.4
				c-0.4,0.3-0.5,0.6-0.5,1.1v0c0,0.2,0.1,0.4,0.2,0.6c0.1,0.2,0.3,0.3,0.6,0.5c0.2,0.1,0.5,0.3,0.9,0.4c0.3,0.1,0.7,0.2,1,0.3
				c0.4,0.1,0.8,0.3,1.2,0.4c0.4,0.1,0.8,0.3,1.1,0.6c0.3,0.2,0.6,0.5,0.8,0.8c0.2,0.3,0.3,0.7,0.3,1.2v0c0,0.5-0.1,0.9-0.3,1.3
				c-0.2,0.4-0.5,0.7-0.8,1c-0.3,0.3-0.7,0.5-1.2,0.6C278.6,147,278.1,147.1,277.5,147.1z"/>
		</g>
	</g>
	<path class="st0" d="M102.3,124.3v-5c-1.4,1.6-3.1,3-5.3,4.1c-2.1,1.1-4.7,1.7-7.8,1.7c-1.9,0-3.8-0.3-5.5-0.8
		c-1.7-0.5-3.2-1.3-4.5-2.4c-1.3-1-2.3-2.3-3.1-3.9c-0.8-1.5-1.2-3.3-1.2-5.4v-0.2c0-2.2,0.4-4.2,1.2-5.8c0.8-1.7,1.9-3,3.4-4.1
		c1.4-1.1,3.2-1.9,5.2-2.4c2-0.5,4.2-0.8,6.5-0.8c2.4,0,4.5,0.2,6.2,0.5c1.7,0.3,3.3,0.7,4.9,1.2v-0.8c0-2.8-0.9-4.9-2.6-6.4
		c-1.7-1.5-4.2-2.2-7.4-2.2c-2.3,0-4.3,0.2-6.1,0.7c-1.8,0.5-3.6,1.1-5.4,1.8l-2.5-7.4c2.2-1,4.5-1.8,6.9-2.4
		c2.3-0.6,5.2-0.9,8.5-0.9c6,0,10.4,1.5,13.3,4.5c2.9,3,4.3,7.2,4.3,12.5v23.9H102.3z M102.5,107.4c-1.2-0.5-2.6-0.8-4.2-1.1
		c-1.6-0.3-3.3-0.5-5.1-0.5c-2.9,0-5.2,0.6-6.8,1.7c-1.6,1.1-2.4,2.6-2.4,4.6v0.2c0,1.9,0.7,3.4,2.2,4.4c1.5,1,3.3,1.5,5.5,1.5
		c1.5,0,2.9-0.2,4.2-0.6c1.3-0.4,2.4-1,3.4-1.7c1-0.7,1.7-1.6,2.2-2.7c0.5-1,0.8-2.2,0.8-3.5V107.4z"/>
	<path class="st0" d="M138.4,136.6c-6.7,0-12.7-1.6-18-4.8l3.4-6.9c2.1,1.3,4.4,2.4,6.7,3.1c2.3,0.8,4.9,1.1,7.6,1.1
		c4.1,0,7.3-1,9.5-3.1c2.2-2.1,3.3-5.2,3.3-9.3v-3.1c-1.7,2.2-3.6,4-5.9,5.3c-2.2,1.4-5,2.1-8.3,2.1c-2.4,0-4.7-0.4-6.9-1.3
		c-2.2-0.9-4.1-2.1-5.8-3.7c-1.7-1.6-3.1-3.6-4.1-5.9c-1-2.3-1.5-5-1.5-7.9v-0.2c0-2.9,0.5-5.6,1.5-8c1-2.4,2.4-4.3,4.1-5.9
		c1.7-1.6,3.7-2.8,5.9-3.7c2.2-0.9,4.5-1.3,6.8-1.3c3.4,0,6.2,0.7,8.4,2c2.2,1.3,4.1,3,5.7,4.8v-6h9.2v32c0,6.7-1.7,11.8-5.1,15.2
		c-1.8,1.8-4.1,3.2-6.9,4.1C145.3,136.2,142.1,136.6,138.4,136.6z M139.2,113.3c1.6,0,3.1-0.3,4.5-0.8s2.7-1.3,3.8-2.3
		c1.1-1,1.9-2.2,2.6-3.5c0.6-1.3,1-2.8,1-4.5v-0.2c0-1.7-0.3-3.2-1-4.5c-0.6-1.3-1.5-2.5-2.6-3.5s-2.3-1.8-3.8-2.3
		c-1.4-0.5-3-0.8-4.5-0.8c-1.6,0-3.1,0.3-4.5,0.8c-1.4,0.5-2.6,1.3-3.6,2.2c-1,1-1.9,2.1-2.4,3.5c-0.6,1.3-0.9,2.9-0.9,4.5v0.2
		c0,1.7,0.3,3.2,0.9,4.5c0.6,1.3,1.4,2.5,2.4,3.5c1,1,2.2,1.8,3.6,2.3C136.1,113,137.6,113.3,139.2,113.3z"/>
	<path class="st0" d="M169.7,84h9.3v6.3c0.7-1,1.4-1.9,2.2-2.7c0.8-0.8,1.7-1.6,2.7-2.3c1-0.7,2.2-1.2,3.4-1.6
		c1.2-0.4,2.6-0.6,4.2-0.6c4.6,0,8.1,1.4,10.6,4.2c2.5,2.8,3.7,6.6,3.7,11.3v25.6h-9.3v-22.8c0-3.1-0.7-5.6-2.2-7.3
		c-1.5-1.7-3.6-2.5-6.3-2.5c-2.7,0-4.8,0.9-6.5,2.6c-1.7,1.7-2.5,4.2-2.5,7.3v22.7h-9.3V84z"/>
	<path class="st0" d="M233.5,125.2c-2.9,0-5.6-0.5-8.1-1.5c-2.5-1-4.7-2.4-6.6-4.3c-1.9-1.8-3.3-4-4.4-6.6c-1.1-2.6-1.6-5.4-1.6-8.5
		v-0.2c0-2.9,0.5-5.6,1.4-8.2c1-2.5,2.3-4.8,4.1-6.7c1.8-1.9,3.8-3.4,6.2-4.5c2.4-1.1,5-1.6,7.9-1.6c3.2,0,6,0.6,8.4,1.8
		c2.4,1.2,4.4,2.7,6,4.7c1.6,2,2.8,4.3,3.6,6.9c0.8,2.6,1.2,5.4,1.2,8.3c0,0.4,0,0.8,0,1.3c0,0.4-0.1,0.9-0.1,1.3h-29.6
		c0.5,3.3,1.8,5.8,3.9,7.6c2.1,1.8,4.7,2.6,7.7,2.6c2.3,0,4.3-0.4,5.9-1.2c1.7-0.8,3.3-2,5-3.6l5.4,4.8c-1.9,2.3-4.2,4.1-6.9,5.5
		C240.4,124.5,237.2,125.2,233.5,125.2z M242.7,101.3c-0.2-1.5-0.5-2.9-1-4.2c-0.5-1.3-1.2-2.4-2.1-3.4c-0.9-0.9-1.9-1.7-3.1-2.2
		c-1.2-0.6-2.6-0.8-4.1-0.8c-2.8,0-5.2,1-7.1,2.9c-1.9,2-3,4.5-3.4,7.7H242.7z"/>
	<path class="st0" d="M272.8,125c-1.7,0-3.2-0.2-4.7-0.6c-1.4-0.4-2.7-1.1-3.7-2s-1.9-2.1-2.4-3.6c-0.6-1.5-0.8-3.4-0.8-5.6V92H256
		V84h5.1V73h9.3V84h10.8V92h-10.8v19.7c0,1.8,0.4,3.1,1.3,3.9c0.9,0.8,2.1,1.2,3.7,1.2c2,0,3.9-0.5,5.7-1.4v7.5
		c-1.2,0.7-2.4,1.2-3.7,1.5C276,124.8,274.5,125,272.8,125z"/>
	<path class="st0" d="M58,113.1c1.2-1.3,2.9-2.2,4.8-2.2c1.9,0,3.6,0.8,4.8,2.2V70.9c0-0.2-0.1-0.3-0.1-0.4c0-0.3-0.1-0.6-0.2-1
		c-0.1-0.3-0.2-0.6-0.3-0.8c-0.1-0.3-0.3-0.5-0.5-0.7c-0.2-0.3-0.4-0.5-0.7-0.7c-0.1-0.1-0.2-0.2-0.3-0.3c-0.1-0.1-0.3-0.1-0.4-0.2
		c-0.3-0.2-0.6-0.3-0.9-0.4c-0.3-0.1-0.6-0.2-0.9-0.2c-0.2,0-0.3-0.1-0.4-0.1c-0.2,0-0.3,0.1-0.4,0.1c-0.3,0-0.6,0.1-0.9,0.2
		c-0.3,0.1-0.6,0.2-0.8,0.3c-0.3,0.1-0.5,0.3-0.7,0.5c-0.3,0.2-0.5,0.4-0.7,0.7c-0.1,0.1-0.2,0.2-0.3,0.3L40.7,95.1L22.6,68.2
		c-0.1-0.1-0.2-0.2-0.3-0.3c-0.2-0.3-0.4-0.5-0.7-0.7c-0.2-0.2-0.5-0.4-0.7-0.5c-0.3-0.1-0.5-0.2-0.8-0.3c-0.3-0.1-0.6-0.2-0.9-0.2
		c-0.2,0-0.3-0.1-0.4-0.1c-0.2,0-0.3,0.1-0.4,0.1c-0.3,0-0.6,0.1-0.9,0.2c-0.3,0.1-0.6,0.2-0.9,0.4c-0.1,0.1-0.3,0.1-0.4,0.2
		c-0.1,0.1-0.2,0.2-0.3,0.3c-0.3,0.2-0.5,0.4-0.7,0.7c-0.2,0.2-0.4,0.5-0.5,0.7c-0.1,0.3-0.2,0.5-0.3,0.8c-0.1,0.3-0.2,0.6-0.2,1
		c0,0.2-0.1,0.3-0.1,0.4v48.5c0,2.7,2.2,4.8,4.8,4.8c2.7,0,4.8-2.2,4.8-4.8V86.7l13.3,19.7c0.3,0.5,0.7,0.9,1.2,1.2
		c0,0,0.1,0.1,0.1,0.1c0.1,0,0.1,0.1,0.2,0.1c0.3,0.2,0.6,0.3,0.9,0.4c0.1,0,0.2,0.1,0.3,0.1c0.4,0.1,0.8,0.2,1.3,0.2
		c0.1,0,0.1,0,0.2,0c0.4,0,0.7-0.1,1.1-0.2c0.1,0,0.3-0.1,0.4-0.2c0.3-0.1,0.5-0.2,0.8-0.4c0.1,0,0.2-0.1,0.2-0.1
		c0.1,0,0.1-0.1,0.1-0.1c0.4-0.3,0.8-0.7,1.2-1.2l0,0c0,0,0,0,0,0L58,86.7V113.1z"/>
	<circle class="st0" cx="62.8" cy="119.4" r="4.8"/>
</g>
</svg>
